<mxfile host="app.diagrams.net" modified="2022-06-28T11:15:55.822Z" agent="5.0 (Windows NT 10.0; Win64; x64) AppleWebKit/537.36 (KHTML, like Gecko) Chrome/102.0.0.0 Safari/537.36" etag="b8jTeWTfWByVB4bWJunh" version="20.0.3" type="github">
  <diagram id="Kgo47K81AxDkUEZPYzzY" name="Page-1">
    <mxGraphModel dx="1422" dy="762" grid="1" gridSize="10" guides="1" tooltips="1" connect="1" arrows="1" fold="1" page="1" pageScale="1" pageWidth="827" pageHeight="1169" math="0" shadow="0">
      <root>
        <mxCell id="0" />
        <mxCell id="1" parent="0" />
        <mxCell id="V1y0-wPwR4VEF1zvK1nV-1" value="&lt;p style=&quot;margin:0px;margin-top:4px;text-align:center;&quot;&gt;&lt;br&gt;&lt;b&gt;configdb&lt;/b&gt;&lt;/p&gt;" style="verticalAlign=top;align=left;overflow=fill;fontSize=12;fontFamily=Helvetica;html=1;" vertex="1" parent="1">
          <mxGeometry x="660" y="460" width="140" height="60" as="geometry" />
        </mxCell>
        <mxCell id="V1y0-wPwR4VEF1zvK1nV-8" style="edgeStyle=orthogonalEdgeStyle;rounded=0;orthogonalLoop=1;jettySize=auto;html=1;entryX=0.5;entryY=1;entryDx=0;entryDy=0;startArrow=none;startFill=0;endArrow=none;endFill=0;" edge="1" parent="1" source="V1y0-wPwR4VEF1zvK1nV-2" target="V1y0-wPwR4VEF1zvK1nV-6">
          <mxGeometry relative="1" as="geometry" />
        </mxCell>
        <mxCell id="V1y0-wPwR4VEF1zvK1nV-2" value="&lt;p style=&quot;margin:0px;margin-top:4px;text-align:center;&quot;&gt;&lt;br&gt;&lt;b&gt;factor&lt;/b&gt;&lt;b style=&quot;background-color: initial;&quot;&gt;y_sql&lt;/b&gt;&lt;/p&gt;" style="verticalAlign=top;align=left;overflow=fill;fontSize=12;fontFamily=Helvetica;html=1;" vertex="1" parent="1">
          <mxGeometry x="660" y="360" width="140" height="60" as="geometry" />
        </mxCell>
        <mxCell id="V1y0-wPwR4VEF1zvK1nV-3" value="" style="endArrow=none;html=1;rounded=0;exitX=0.5;exitY=1;exitDx=0;exitDy=0;" edge="1" parent="1" source="V1y0-wPwR4VEF1zvK1nV-2" target="V1y0-wPwR4VEF1zvK1nV-1">
          <mxGeometry width="50" height="50" relative="1" as="geometry">
            <mxPoint x="500" y="420" as="sourcePoint" />
            <mxPoint x="550" y="370" as="targetPoint" />
          </mxGeometry>
        </mxCell>
        <mxCell id="V1y0-wPwR4VEF1zvK1nV-5" value="«interface»&lt;br&gt;SQL" style="html=1;" vertex="1" parent="1">
          <mxGeometry x="440" y="260" width="110" height="50" as="geometry" />
        </mxCell>
        <mxCell id="V1y0-wPwR4VEF1zvK1nV-6" value="&lt;p style=&quot;margin:0px;margin-top:4px;text-align:center;&quot;&gt;&lt;br&gt;&lt;b&gt;postgres_sql&lt;/b&gt;&lt;/p&gt;" style="verticalAlign=top;align=left;overflow=fill;fontSize=12;fontFamily=Helvetica;html=1;" vertex="1" parent="1">
          <mxGeometry x="660" y="255" width="140" height="60" as="geometry" />
        </mxCell>
        <mxCell id="V1y0-wPwR4VEF1zvK1nV-7" value="" style="endArrow=none;dashed=1;html=1;rounded=0;entryX=0;entryY=0.5;entryDx=0;entryDy=0;exitX=1;exitY=0.5;exitDx=0;exitDy=0;startArrow=open;startFill=0;" edge="1" parent="1" source="V1y0-wPwR4VEF1zvK1nV-5" target="V1y0-wPwR4VEF1zvK1nV-6">
          <mxGeometry width="50" height="50" relative="1" as="geometry">
            <mxPoint x="450" y="250" as="sourcePoint" />
            <mxPoint x="500" y="200" as="targetPoint" />
          </mxGeometry>
        </mxCell>
        <mxCell id="V1y0-wPwR4VEF1zvK1nV-10" style="edgeStyle=orthogonalEdgeStyle;rounded=0;orthogonalLoop=1;jettySize=auto;html=1;entryX=0;entryY=0.5;entryDx=0;entryDy=0;startArrow=none;startFill=0;endArrow=none;endFill=0;" edge="1" parent="1" source="V1y0-wPwR4VEF1zvK1nV-9" target="V1y0-wPwR4VEF1zvK1nV-5">
          <mxGeometry relative="1" as="geometry" />
        </mxCell>
        <mxCell id="V1y0-wPwR4VEF1zvK1nV-12" value="" style="edgeStyle=orthogonalEdgeStyle;rounded=0;orthogonalLoop=1;jettySize=auto;html=1;startArrow=none;startFill=0;endArrow=open;endFill=0;dashed=1;" edge="1" parent="1" source="V1y0-wPwR4VEF1zvK1nV-9" target="V1y0-wPwR4VEF1zvK1nV-11">
          <mxGeometry relative="1" as="geometry" />
        </mxCell>
        <mxCell id="V1y0-wPwR4VEF1zvK1nV-9" value="&lt;p style=&quot;margin:0px;margin-top:4px;text-align:center;&quot;&gt;&lt;br&gt;&lt;b&gt;project_sql&lt;/b&gt;&lt;/p&gt;" style="verticalAlign=top;align=left;overflow=fill;fontSize=12;fontFamily=Helvetica;html=1;" vertex="1" parent="1">
          <mxGeometry x="210" y="255" width="140" height="60" as="geometry" />
        </mxCell>
        <mxCell id="V1y0-wPwR4VEF1zvK1nV-11" value="«interface»&lt;br&gt;&lt;b&gt;ProjectRepository&lt;/b&gt;" style="html=1;" vertex="1" parent="1">
          <mxGeometry x="35" y="260" width="110" height="50" as="geometry" />
        </mxCell>
        <mxCell id="V1y0-wPwR4VEF1zvK1nV-16" style="edgeStyle=orthogonalEdgeStyle;rounded=0;orthogonalLoop=1;jettySize=auto;html=1;entryX=0.5;entryY=1;entryDx=0;entryDy=0;startArrow=none;startFill=0;endArrow=none;endFill=0;" edge="1" parent="1" source="V1y0-wPwR4VEF1zvK1nV-14" target="V1y0-wPwR4VEF1zvK1nV-11">
          <mxGeometry relative="1" as="geometry" />
        </mxCell>
        <mxCell id="V1y0-wPwR4VEF1zvK1nV-14" value="&lt;p style=&quot;margin:0px;margin-top:4px;text-align:center;&quot;&gt;&lt;br&gt;&lt;b&gt;project_usecase&lt;/b&gt;&lt;/p&gt;" style="verticalAlign=top;align=left;overflow=fill;fontSize=12;fontFamily=Helvetica;html=1;" vertex="1" parent="1">
          <mxGeometry x="20" y="400" width="140" height="60" as="geometry" />
        </mxCell>
      </root>
    </mxGraphModel>
  </diagram>
</mxfile>
